<svg xmlns="http://www.w3.org/2000/svg" width="40" height="40" viewBox="0 0 40 40" fill="none"><path d="M32.5 33.2812C32.0687 33.2812 31.7188 33.6313 31.7188 34.0625C31.7188 34.4938 32.0687 34.8438 32.5 34.8438C32.9312 34.8438 33.2812 34.4938 33.2812 34.0625C33.2812 33.6313 32.9312 33.2812 32.5 33.2812Z" fill="#2E2E2E"/><path d="M34.8437 3.70563V2.34375C34.8437 1.05141 33.7923 0 32.5 0H7.5C6.20768 0 5.15625 1.05141 5.15625 2.34375V3.70563C0.0603907 13.1169 0.000234375 12.8374 0 13.2804C0 13.2807 0 13.281 0 13.2812V14.8437C0 16.1979 0.782971 17.4573 2.03125 18.1734V39.2188C2.03125 39.6501 2.38109 40 2.8125 40H37.1875C37.6189 40 37.9687 39.6501 37.9687 39.2188V18.1734C39.2044 17.4579 40 16.1837 40 14.8437V13.2812C40 13.281 40 13.2807 40 13.2804C39.9998 12.8326 39.8899 13.0251 34.8437 3.70563ZM37.8975 12.5H33.0631L30.459 4.6875H33.6006L37.8975 12.5ZM27.0313 14.0625H31.7188V14.8437C31.7188 16.1361 30.6674 17.1875 29.375 17.1875C28.0827 17.1875 27.0313 16.1361 27.0313 14.8437V14.0625ZM26.9118 12.5L25.6098 4.6875H28.8119L31.416 12.5H26.9118ZM6.71877 2.34375C6.71877 1.91297 7.06923 1.5625 7.5 1.5625H32.5C32.9308 1.5625 33.2812 1.91297 33.2812 2.34375V3.125C32.5373 3.125 7.46843 3.125 6.71877 3.125V2.34375ZM25.4687 14.0625V14.8437C25.4687 16.1361 24.4173 17.1875 23.125 17.1875C21.8326 17.1875 20.7812 16.1361 20.7812 14.8437V14.0625H25.4687ZM20.7812 12.5V4.6875H24.0257L25.3278 12.5H20.7812ZM14.6723 12.5L15.9744 4.6875H19.2188V12.5H14.6723ZM19.2188 14.0625V14.8437C19.2188 16.1361 18.1674 17.1875 16.875 17.1875C15.5827 17.1875 14.5313 16.1361 14.5313 14.8437V14.0625H19.2188ZM8.58389 12.5L11.1881 4.6875H14.3902L13.0881 12.5H8.58389ZM12.9687 14.0625V14.8437C12.9687 16.1361 11.9173 17.1875 10.625 17.1875C9.33264 17.1875 8.28123 16.1361 8.28123 14.8437V14.0625H12.9687ZM6.39936 4.6875H9.54101L6.93685 12.5H2.1025L6.39936 4.6875ZM1.5625 14.8437V14.0625H6.71877V14.8437C6.71877 16.0704 5.48992 17.1875 4.14062 17.1875C3.80047 17.1875 3.44797 17.1137 3.11985 16.9733C2.18836 16.5771 1.5625 15.7212 1.5625 14.8437ZM16.0938 38.4375H8.28123V31.7188H16.0938V38.4375ZM16.0938 30.1563H8.28123V23.4375H16.0938V30.1563ZM36.4062 38.4375H17.6563V22.6563C17.6563 22.2249 17.3064 21.875 16.875 21.875H7.5C7.06859 21.875 6.71877 22.2249 6.71877 22.6563V38.4375H3.59375V18.7118C3.77484 18.7364 3.95726 18.75 4.14062 18.75C5.16883 18.75 6.20821 18.3427 6.99205 17.6323C7.16539 17.4753 7.32149 17.3074 7.46155 17.1313C8.17205 18.1111 9.32501 18.75 10.625 18.75C11.9015 18.75 13.0367 18.1345 13.75 17.1847C14.4633 18.1345 15.5985 18.75 16.875 18.75C18.1515 18.75 19.2867 18.1345 20 17.1847C20.7133 18.1345 21.8485 18.75 23.125 18.75C24.4015 18.75 25.5367 18.1345 26.25 17.1847C26.9633 18.1345 28.0985 18.75 29.375 18.75C30.675 18.75 31.8279 18.1111 32.5385 17.1313C32.6785 17.3074 32.8346 17.4753 33.0079 17.6323C33.7918 18.3427 34.8311 18.75 35.8594 18.75C36.0423 18.75 36.2248 18.7369 36.4062 18.7121V38.4375ZM38.4375 14.8437C38.4375 15.7459 37.7884 16.6116 36.8223 16.998C36.5064 17.1238 36.1825 17.1875 35.8594 17.1875C34.5101 17.1875 33.2812 16.0704 33.2812 14.8437V14.0625H38.4375V14.8437Z" fill="#2E2E2E"/><path d="M34.0625 30.1563H33.2812V22.6563C33.2812 22.2249 32.9314 21.875 32.5 21.875H23.125C22.6936 21.875 22.3438 22.2249 22.3438 22.6563V30.1563H21.5625C21.1311 30.1563 20.7812 30.5061 20.7812 30.9375C20.7812 31.3689 21.1311 31.7188 21.5625 31.7188H34.0625C34.4939 31.7188 34.8438 31.3689 34.8438 30.9375C34.8438 30.5061 34.4939 30.1563 34.0625 30.1563ZM31.7188 30.1563H23.9063V23.4375H31.7188V30.1563Z" fill="#2E2E2E"/><path d="M29.375 33.2812H23.125C22.6936 33.2812 22.3438 33.6311 22.3438 34.0625C22.3438 34.4939 22.6936 34.8438 23.125 34.8438H29.375C29.8064 34.8438 30.1563 34.4939 30.1563 34.0625C30.1563 33.6311 29.8064 33.2812 29.375 33.2812Z" fill="#2E2E2E"/></svg>