<svg xmlns="http://www.w3.org/2000/svg" width="40" height="40" viewBox="0 0 40 40" fill="none"><path d="M20 0C12.2459 0 5.9375 6.30843 5.9375 14.0625C5.9375 16.6823 6.66321 19.239 8.03665 21.4572L19.1995 39.446C19.4133 39.7906 19.7901 40 20.1953 40C20.1984 40 20.2014 40 20.2045 40C20.6132 39.9968 20.9907 39.781 21.2006 39.4303L32.079 21.2672C33.3766 19.0959 34.0625 16.6046 34.0625 14.0625C34.0625 6.30843 27.7541 0 20 0ZM30.0677 20.0639L20.1775 36.577L10.0287 20.2223C8.8855 18.3761 8.26561 16.2461 8.26561 14.0625C8.26561 7.6008 13.5383 2.32812 20 2.32812C26.4617 2.32812 31.7266 7.6008 31.7266 14.0625C31.7266 16.1813 31.1476 18.2569 30.0677 20.0639Z" fill="#2E2E2E"/><path d="M20 7.03125C16.123 7.03125 12.9688 10.1855 12.9688 14.0625C12.9688 17.9148 16.0716 21.0938 20 21.0938C23.9768 21.0938 27.0313 17.8724 27.0313 14.0625C27.0313 10.1855 23.877 7.03125 20 7.03125ZM20 18.7656C17.4018 18.7656 15.2969 16.6536 15.2969 14.0625C15.2969 11.4778 17.4153 9.35936 20 9.35936C22.5847 9.35936 24.6953 11.4778 24.6953 14.0625C24.6953 16.6158 22.6394 18.7656 20 18.7656Z" fill="#2E2E2E"/></svg>