<svg xmlns="http://www.w3.org/2000/svg" width="40" height="41" viewBox="0 0 40 41" fill="none"><path d="M24.8443 16.571C23.5307 16.571 22.2548 16.826 21.0523 17.3286C20.6542 17.495 20.4663 17.9529 20.6325 18.3512C20.7989 18.7497 21.2565 18.9375 21.6546 18.7713C22.6654 18.3487 23.7385 18.1345 24.8443 18.1345C29.4106 18.1345 33.1256 21.8519 33.1256 26.421C33.1256 30.99 29.4106 34.7073 24.8443 34.7073C20.278 34.7073 16.563 30.99 16.563 26.421C16.563 25.3162 16.7765 24.2438 17.1975 23.2338C17.3636 22.8353 17.1753 22.3776 16.7772 22.2113C16.3792 22.0454 15.9214 22.2335 15.7553 22.6319C15.2545 23.8337 15.0005 25.1085 15.0005 26.421C15.0005 31.8522 19.4164 36.2708 24.8443 36.2708C30.2722 36.2708 34.688 31.8522 34.688 26.421C34.688 20.9897 30.2722 16.571 24.8443 16.571Z" fill="#2E2E2E"/><path d="M24.8443 32.8312C28.3767 32.8312 31.2505 29.9556 31.2505 26.421C31.2505 22.8863 28.3767 20.0107 24.8443 20.0107C21.3118 20.0107 18.438 22.8863 18.438 26.421C18.438 29.9556 21.3119 32.8312 24.8443 32.8312ZM24.8443 21.5742C27.5151 21.5742 29.688 23.7485 29.688 26.421C29.688 29.0934 27.5151 31.2677 24.8443 31.2677C22.1734 31.2677 20.0005 29.0935 20.0005 26.421C20.0005 23.7484 22.1734 21.5742 24.8443 21.5742Z" fill="#2E2E2E"/><path d="M36.0379 12.8189H33.6613L30.9335 8.19987C30.793 7.96181 30.5372 7.8158 30.261 7.8158H19.4276C19.1513 7.8158 18.8955 7.96181 18.755 8.19987L16.0273 12.8189H11.5625V11.8808C11.5625 10.329 10.3009 9.06655 8.74998 9.06655C7.19916 9.06655 5.9375 10.329 5.9375 11.8808V12.8189H3.96219C1.77743 12.8189 0 14.5974 0 16.7836V36.0586C0 38.2448 1.77743 40.0233 3.96219 40.0233H36.0378C38.2226 40.0233 40 38.2448 40 36.0586V16.7836C40.0001 14.5974 38.2226 12.8189 36.0379 12.8189ZM19.8734 9.37927H29.8151L31.8464 12.8189H17.8422L19.8734 9.37927ZM7.50001 11.8808C7.50001 11.1912 8.06081 10.63 8.74998 10.63C9.43921 10.63 10 11.1912 10 11.8808V12.8189H7.50001V11.8808ZM38.4375 36.0586C38.4375 37.3827 37.3611 38.4598 36.0379 38.4598H3.96219C2.63899 38.4598 1.5625 37.3826 1.5625 36.0586V16.7836C1.5625 15.4595 2.63899 14.3824 3.96219 14.3824H36.0378C37.361 14.3824 38.4375 15.4595 38.4375 16.7836V36.0586H38.4375Z" fill="#2E2E2E"/><path d="M24.8442 24.8966C25.6843 24.8966 26.3677 25.5805 26.3677 26.421C26.3677 26.8528 26.7175 27.2027 27.1489 27.2027C27.5804 27.2027 27.9302 26.8528 27.9302 26.421C27.9302 24.7184 26.5458 23.3331 24.8442 23.3331C24.4128 23.3331 24.063 23.6832 24.063 24.1149C24.063 24.5466 24.4128 24.8966 24.8442 24.8966Z" fill="#2E2E2E"/><path d="M24.8442 5.75903C25.2757 5.75903 25.6255 5.40894 25.6255 4.97729V0.804931C25.6255 0.373254 25.2757 0.0231934 24.8442 0.0231934C24.4128 0.0231934 24.063 0.373176 24.063 0.804931V4.97729C24.063 5.40905 24.4128 5.75903 24.8442 5.75903Z" fill="#2E2E2E"/><path d="M28.5618 5.75898C28.7617 5.75898 28.9617 5.68262 29.1143 5.53004L31.9807 2.66177C32.2858 2.3565 32.2858 1.86151 31.9807 1.55616C31.6756 1.25097 31.1809 1.25097 30.8758 1.55616L28.0094 4.42451C27.7043 4.72977 27.7043 5.22477 28.0094 5.5301C28.162 5.68272 28.3619 5.75898 28.5618 5.75898Z" fill="#2E2E2E"/><path d="M20.5743 5.53002C20.7268 5.6826 20.9268 5.75896 21.1267 5.75896C21.3266 5.75896 21.5266 5.6826 21.6791 5.53002C21.9842 5.22474 21.9843 4.72975 21.6792 4.4244L18.8127 1.55613C18.5076 1.25102 18.0129 1.25095 17.7079 1.55613C17.4028 1.8614 17.4027 2.3564 17.7078 2.66174L20.5743 5.53002Z" fill="#2E2E2E"/><path d="M10.7812 19.2289H6.71878C6.28726 19.2289 5.9375 19.579 5.9375 20.0106C5.9375 20.4424 6.28726 20.7924 6.71878 20.7924H10.7812C11.2128 20.7924 11.5625 20.4424 11.5625 20.0106C11.5625 19.5789 11.2128 19.2289 10.7812 19.2289Z" fill="#2E2E2E"/><path d="M18.4344 20.7924C18.6399 20.7924 18.8414 20.7087 18.9867 20.5633C19.1321 20.4179 19.2156 20.2169 19.2156 20.0106C19.2156 19.805 19.1321 19.6034 18.9867 19.4579C18.8414 19.3126 18.6399 19.2289 18.4344 19.2289C18.2289 19.2289 18.0274 19.3125 17.882 19.4579C17.736 19.6034 17.6531 19.8051 17.6531 20.0106C17.6531 20.2162 17.736 20.4179 17.882 20.5633C18.0274 20.7087 18.2281 20.7924 18.4344 20.7924Z" fill="#2E2E2E"/></svg>